<svg width="100" height="46" viewBox="0 0 100 46" fill="none" xmlns="http://www.w3.org/2000/svg">
<path d="M2.11364 37V19.5455H4.22727V35.125H12.3409V37H2.11364ZM15.6136 37V19.5455H26.1477V21.4205H17.7273V27.3182H25.6023V29.1932H17.7273V35.125H26.2841V37H15.6136Z" fill="black"/>
<path d="M68.8409 28.2727C68.8409 30.1136 68.5085 31.7045 67.8438 33.0455C67.179 34.3864 66.267 35.4205 65.108 36.1477C63.9489 36.875 62.625 37.2386 61.1364 37.2386C59.6477 37.2386 58.3239 36.875 57.1648 36.1477C56.0057 35.4205 55.0938 34.3864 54.429 33.0455C53.7642 31.7045 53.4318 30.1136 53.4318 28.2727C53.4318 26.4318 53.7642 24.8409 54.429 23.5C55.0938 22.1591 56.0057 21.125 57.1648 20.3977C58.3239 19.6705 59.6477 19.3068 61.1364 19.3068C62.625 19.3068 63.9489 19.6705 65.108 20.3977C66.267 21.125 67.179 22.1591 67.8438 23.5C68.5085 24.8409 68.8409 26.4318 68.8409 28.2727ZM66.7955 28.2727C66.7955 26.7614 66.5426 25.4858 66.0369 24.446C65.5369 23.4062 64.858 22.6193 64 22.0852C63.1477 21.5511 62.1932 21.2841 61.1364 21.2841C60.0795 21.2841 59.1222 21.5511 58.2642 22.0852C57.4119 22.6193 56.733 23.4062 56.2273 24.446C55.7273 25.4858 55.4773 26.7614 55.4773 28.2727C55.4773 29.7841 55.7273 31.0597 56.2273 32.0994C56.733 33.1392 57.4119 33.9261 58.2642 34.4602C59.1222 34.9943 60.0795 35.2614 61.1364 35.2614C62.1932 35.2614 63.1477 34.9943 64 34.4602C64.858 33.9261 65.5369 33.1392 66.0369 32.0994C66.5426 31.0597 66.7955 29.7841 66.7955 28.2727ZM86.2358 19.5455V37H84.1903L74.679 23.2955H74.5085V37H72.3949V19.5455H74.4403L83.9858 33.2841H84.1562V19.5455H86.2358Z" fill="black"/>
<path d="M89.4091 19.1818V25H88.7045V19.1818H89.4091ZM90.5036 19.8068V19.1818H94.8672V19.8068H93.0376V25H92.3331V19.8068H90.5036Z" fill="black"/>
<path d="M32.5 11.0909L40.8523 24.7443H41.125L49.4773 11.0909H55.5795L44.7045 28.5455L55.6477 46H49.5114L41.125 32.5341H40.8523L32.4659 46H26.3295L37.4602 28.5455L26.3977 11.0909H32.5Z" fill="url(#paint0_linear_1_14)"/>
<defs>
<linearGradient id="paint0_linear_1_14" x1="25" y1="34" x2="57" y2="34.5" gradientUnits="userSpaceOnUse">
<stop stop-color="#0A499D"/>
<stop offset="1" stop-color="#D489E3"/>
</linearGradient>
</defs>
</svg>
